<?xml version="1.0" encoding="UTF-8" standalone="no"?>
<!-- Created with Inkscape (http://www.inkscape.org/) -->

<svg
   width="125.11515mm"
   height="65.697525mm"
   viewBox="0 0 760.19487 399.17564"
   version="1.1"
   id="svg1"
   xml:space="preserve"
   inkscape:export-filename="NewlogoMooncastO.png"
   inkscape:export-xdpi="96"
   inkscape:export-ydpi="96"
   inkscape:version="1.4 (86a8ad7, 2024-10-11)"
   sodipodi:docname="mooncastlogo.svg"
   xmlns:inkscape="http://www.inkscape.org/namespaces/inkscape"
   xmlns:sodipodi="http://sodipodi.sourceforge.net/DTD/sodipodi-0.dtd"
   xmlns="http://www.w3.org/2000/svg"
   xmlns:svg="http://www.w3.org/2000/svg"><sodipodi:namedview
     id="namedview1"
     pagecolor="#000000"
     bordercolor="#000000"
     borderopacity="0.25"
     inkscape:showpageshadow="2"
     inkscape:pageopacity="0.0"
     inkscape:pagecheckerboard="0"
     inkscape:deskcolor="#d1d1d1"
     inkscape:document-units="mm"
     inkscape:zoom="1.4400893"
     inkscape:cx="272.55255"
     inkscape:cy="80.897762"
     inkscape:window-width="2560"
     inkscape:window-height="1361"
     inkscape:window-x="-9"
     inkscape:window-y="-9"
     inkscape:window-maximized="1"
     inkscape:current-layer="layer1" /><defs
     id="defs1" /><g
     inkscape:label="Layer 1"
     inkscape:groupmode="layer"
     id="layer1"
     transform="translate(-207.41032,-161.3493)"><g
       id="g4"
       inkscape:label="Wings"
       transform="translate(7.8142286,11.163184)"><g
         id="g8"
         inkscape:label="WingsRight"
         transform="translate(-34.72007,-3.472007)"
         style="stroke:#ffffff;stroke-opacity:1"><path
           style="fill:#000000;fill-opacity:1;stroke:#ffffff;stroke-width:3.88068;stroke-opacity:1"
           d="m 949.65596,278.35646 c -72.88364,27.18252 -162.44006,55.10297 -223.88875,62.81323 -28.43309,3.56764 20.17512,64.89185 46.64348,75.87341 26.9828,11.195 59.1533,-7.2997 85.2021,-20.52313 25.44362,-12.91622 44.15494,-37.59269 62.19132,-59.70367 14.19127,-17.39721 50.88762,-66.3053 29.85185,-58.45984 z"
           id="path6"
           sodipodi:nodetypes="ssssss" /><path
           style="fill:#000000;fill-opacity:1;stroke:#ffffff;stroke-width:4.55916;stroke-opacity:1"
           d="m 984.75522,162.53918 c -85.62627,31.93499 -190.8403,64.73692 -263.0324,73.79521 -33.40419,4.19138 23.70245,76.23722 54.79841,89.13875 31.70034,13.15228 69.49538,-8.57594 100.09843,-24.1113 29.89207,-15.17443 51.87478,-44.16521 73.06455,-70.14197 16.67242,-20.43886 59.78459,-77.89781 35.07101,-68.68069 z"
           id="path7"
           sodipodi:nodetypes="ssssss" /><path
           style="fill:#000000;fill-opacity:1;stroke:#ffffff;stroke-width:2.95719;stroke-opacity:1"
           d="m 901.26468,382.31552 c -55.53951,20.7139 -123.78417,41.99011 -170.60991,47.86556 -21.66686,2.71865 -15.17961,55.69914 4.99007,64.06741 20.56169,8.53093 69.38063,-7.64578 89.23059,-17.72244 19.38881,-9.84254 39.897,-32.81316 53.64126,-49.66238 10.81416,-13.2572 38.77788,-50.52662 22.74799,-44.54815 z"
           id="path8"
           sodipodi:nodetypes="ssssss" /></g><path
         style="fill:#000000;fill-opacity:1;stroke:#ffffff;stroke-width:3.88157;stroke-dasharray:none;stroke-opacity:1"
         d="m 244.45061,269.32924 c 72.88364,27.18252 162.44006,55.10297 223.88875,62.81323 28.43309,3.56764 -20.17512,64.89185 -46.64348,75.87341 -26.9828,11.195 -59.1533,-7.2997 -85.2021,-20.52313 -25.44362,-12.91622 -44.15494,-37.59269 -62.19132,-59.70367 -14.19127,-17.39721 -50.88762,-66.3053 -29.85185,-58.45984 z"
         id="path4"
         sodipodi:nodetypes="ssssss" /><path
         style="fill:#000000;fill-opacity:1;stroke:#ffffff;stroke-width:4.55811;stroke-dasharray:none;stroke-opacity:1"
         d="m 209.35135,153.51196 c 85.62627,31.93499 190.8403,64.73692 263.0324,73.79521 33.40419,4.19138 -23.70245,76.23722 -54.79841,89.13875 -31.70034,13.15228 -69.49538,-8.57594 -100.09843,-24.1113 -29.89207,-15.17443 -51.87478,-44.16521 -73.06455,-70.14197 -16.67242,-20.43886 -59.78457,-77.89781 -35.07101,-68.68069 z"
         id="path3"
         sodipodi:nodetypes="ssssss" /><path
         style="fill:#000000;fill-opacity:1;stroke:#ffffff;stroke-width:4.84535;stroke-dasharray:none;stroke-opacity:1"
         d="m 292.84189,373.2883 c 55.53951,20.7139 123.78417,41.99011 170.60991,47.86556 21.66686,2.71865 15.17961,55.69914 -4.99007,64.06741 -20.56169,8.53093 -69.38063,-7.64578 -89.23059,-17.72244 -19.38881,-9.84254 -39.897,-32.81316 -53.64126,-49.66238 -10.81416,-13.2572 -38.77788,-50.52662 -22.74799,-44.54815 z"
         id="path5"
         sodipodi:nodetypes="ssssss" /></g><g
       id="g3"
       transform="matrix(0.39961929,0,0,0.40219522,770.19698,348.56673)"><g
         id="g9"
         transform="translate(19.554183,27.755635)"><ellipse
           style="display:inline;fill:#000000;fill-opacity:1;stroke:#ffffff;stroke-width:10.808;stroke-opacity:1"
           id="path1"
           cx="-474.45844"
           cy="44.083084"
           rx="452.65973"
           ry="449.76059" /><ellipse
           style="display:inline;fill:#db8101;fill-opacity:1;stroke:none;stroke-width:12.2222"
           id="path2"
           cx="-481.59589"
           cy="43.21973"
           rx="420.51309"
           ry="417.81982"
           inkscape:label="OrangeCricle" /><ellipse
           style="display:inline;fill:#01b0db;fill-opacity:1;stroke:none;stroke-width:12.2222"
           id="ellipse11"
           cx="-481.59589"
           cy="43.21973"
           rx="420.51309"
           ry="417.81982"
           transform="translate(1.1337388e-6,1.1998914e-5)"
           inkscape:label="BlueCicrle" /><ellipse
           style="display:inline;fill:#ffffff;fill-opacity:1;stroke:none;stroke-width:11.0353"
           id="circle3"
           cx="-478.98932"
           cy="40.630028"
           rx="379.67816"
           ry="377.24646" /><ellipse
           style="display:inline;fill:#000000;fill-opacity:1;stroke:none;stroke-width:9.94944"
           id="circle2"
           cx="-479.85806"
           cy="44.946323"
           rx="342.31851"
           ry="340.12607" /><path
           d="m -412.93215,-214.10256 c 21.11275,3.17006 42.67453,10.54291 53.9179,13.98237 22.65288,6.92384 59.42733,28.44519 72.41288,38.76808 6.14255,4.88081 19.06075,17.66431 24.06279,24.09872 4.87184,6.26827 14.17995,19.84652 20.12043,28.2117 9.4518,13.807263 20.58292,34.372215 30.02574,53.29826 10.5474,21.144184 11.27031,27.268775 14.45832,44.946547 l 6.97324,31.161745 c 0.65556,5.388198 1.19886,25.153901 -10.40372,27.924333 -11.5981,2.770433 -22.32062,-2.581843 -27.37653,-10.403709 -6.99568,-10.825788 -6.0303,-26.191136 -13.94197,-43.7791032 -6.16949,-14.2158678 -8.86807,-34.8751108 -18.71949,-49.7330678 l -7.72757,-13.066377 c -13.67256,-21.049894 -27.92434,-37.757808 -36.42422,-48.655428 -7.48511,-9.15545 -21.46299,-21.60218 -34.71347,-30.45679 -12.25365,-7.43122 -32.06426,-15.90416 -46.35197,-20.26861 -4.55302,-1.48174 -24.04033,-7.2112 -36.15031,-8.82317 -16.434,-1.84545 -27.24632,-4.44526 -42.86311,-5.54535 -19.28077,-1.36052 -28.53051,-3.07576 -53.54072,-0.15267 -9.47425,2.56837 -24.48488,3.58765 -37.99577,8.75583 -10.91111,4.44975 -26.08786,11.6385 -40.9548,20.37187 -15.99846,8.77378 -40.28576,26.71648 -56.39197,42.03693 -16.23195,17.345502 -24.35017,26.653618 -35.54415,48.641949 -4.95714,10.87967 -14.54365,27.708813 -18.40968,39.589789 -2.64021,12.060583 -7.67817,34.556307 -6.82953,45.480879 0.38166,19.572624 -1.3291,23.604792 0.13919,39.603249 0.0539,14.404447 4.78203,24.390569 6.74872,36.172762 1.68381,8.140672 9.49221,36.307472 14.32362,42.845142 21.9614,47.31736 51.43933,67.81048 84.28937,82.59209 9.25872,4.71468 38.23375,12.46919 46.61689,14.69182 14.29219,2.57736 33.10149,4.29709 51.20584,4.64733 19.04727,0.37268 45.30127,-2.20916 61.23238,-8.07332 17.24223,-6.34011 37.17856,-15.35187 36.94956,-15.10042 8.00147,-4.40934 20.21024,-11.60709 24.0134,-14.77265 7.3504,-4.71018 11.7777,-6.53319 16.13316,-11.06825 6.28175,-5.49596 10.08491,-8.66153 14.84449,-15.47311 2.6492,-3.83909 6.85647,-9.71672 10.956,-14.91183 4.40933,-7.22468 6.94179,-14.84 11.24786,-24.26036 5.15022,-13.93299 4.35097,-13.26395 5.32983,-28.06354 0.92497,-4.2881 -0.0988,-18.701521 -0.87558,-21.148668 -2.32142,-13.299863 -1.49972,-25.032661 -4.54405,-37.946381 -4.113,-17.471232 -7.53,-30.54659 -12.77901,-47.3083702 -4.9347,-18.8721638 -19.42894,-36.3568668 -30.30862,-48.8440178 -6.73974,-7.741042 -27.65043,-26.02499 -56.66138,-37.443484 -8.16761,-2.747972 -21.53932,-5.864153 -30.03023,-7.413261 -18.12679,-1.894854 -21.07682,-0.678011 -38.43131,0.592706 -5.97192,1.041716 -19.83755,3.875014 -24.93388,5.666584 -14.90735,5.235531 -20.38985,8.562748 -35.62946,17.8978 -7.09446,4.117482 -12.44225,7.269572 -19.69386,14.067682 -5.78783,5.356767 -9.92326,14.462828 -14.611,19.801625 -6.42094,8.737866 -13.56928,20.394331 -18.36478,32.9667957 -5.19961,12.5051033 -6.87444,30.1110403 -6.08416,41.4397313 0,8.634581 2.34835,24.439959 3.2823,27.897392 0.92947,3.461913 3.26435,14.193407 3.77174,16.348679 0.50739,2.150795 6.08866,13.506417 6.85648,15.149817 3.14761,6.69933 9.17341,16.32625 19.32567,26.1552 7.48959,8.18108 21.97037,16.2095 32.80963,19.32119 9.72121,5.33432 26.11481,6.24133 35.18494,6.25928 4.46323,-0.26941 15.86375,-0.96987 21.81321,-2.39774 12.06507,-2.89616 14.2922,-2.97249 26.72547,-8.37416 11.15805,-5.17266 18.72847,-7.03608 26.50096,-12.779 0,0 10.66862,-8.3607 15.51799,-14.4763 2.5594,-3.22843 6.9463,-18.611726 6.165,-28.139847 -0.36369,-13.043931 1.53563,-20.443728 -1.12703,-31.175222 -2.66266,-10.731494 -7.2067,-23.169244 -12.13242,-30.833962 -4.98858,-7.763493 -15.71558,-15.329417 -27.92434,-21.3507333 -6.83403,-3.3765994 -23.03005,-6.5062472 -29.9,-7.3189633 -13.05292,-1.5491083 -23.9685,4.3734234 -30.59598,11.1490818 -5.74742,6.5691098 -17.10753,20.2147138 -12.58145,34.3228168 4.09504,12.765534 9.03871,26.366245 28.18477,25.35596 13.13822,2.734511 28.33742,-1.234795 33.39784,1.095598 7.51204,4.265658 10.39922,13.686025 7.6692,20.255139 -1.90383,12.666742 -14.03625,14.184412 -26.9859,15.149802 -11.58461,1.93975 -41.00866,-3.73132 -47.4745,-8.576208 -4.3375,-2.577354 -10.97846,-8.769292 -15.6572,-12.94963 -3.36314,-3.008412 -7.1708,-9.716719 -9.7706,-14.534671 -3.19251,-5.918032 -4.80448,-10.273494 -5.62618,-14.130545 -0.97437,-4.579962 -2.98147,-13.322319 -2.22263,-22.064664 0.51188,-5.895591 2.09242,-8.405592 3.66398,-17.026713 3.12965,-9.775081 7.01812,-17.2152901 13.27292,-25.6927141 8.14965,-8.2708859 18.49947,-18.1178199 28.60236,-22.6932929 8.90847,-4.705698 24.51629,-6.438895 38.63786,-5.612708 11.4544,1.095598 25.00572,2.49204 33.9636,5.495963 15.33392,5.478001 19.71632,6.569109 32.30225,14.507721 10.6372,6.582581 21.33726,18.69255552 27.30918,28.723579 12.70267,25.993567 19.99021,54.910226 14.69182,93.835463 -0.43554,6.57809 -2.48307,13.00351 -6.58259,21.70994 -3.78521,8.03741 -10.42616,17.81248 -20.38983,25.17187 -4.0142,3.71336 -10.34085,8.28435 -15.49108,10.96049 -7.30997,4.43628 -12.22671,6.74422 -19.85999,10.57883 -6.69933,3.14759 -14.50772,6.74872 -24.69141,9.57751 -11.03683,4.36445 -19.50528,4.54405 -33.38438,6.61401 -13.66357,3.42601 -51.04419,0.97887 -73.31091,-8.84112 -15.19921,-6.38951 -32.25286,-17.65533 -45.21596,-31.38625 -7.20223,-7.54797 -14.2473,-21.24297 -16.31727,-24.04483 -10.3094,-19.81959 -12.32999,-38.462752 -13.98236,-42.378182 -2.24509,-5.320844 -3.36313,-17.251211 -4.86734,-25.414323 -1.69729,-9.150963 -0.64658,-47.5283991 8.59418,-72.161438 5.20859,-9.806523 8.25741,-18.548869 11.78219,-23.142312 6.33561,-9.011758 9.39791,-14.642427 14.78611,-21.031928 8.1227,-9.851425 14.03625,-17.888821 21.94792,-23.555402 20.16084,-16.3936 37.00345,-25.041665 59.78205,-35.862965 28.306,-11.52624 36.80588,-9.14197 63.59421,-8.7154 12.0516,0.10328 29.59019,3.89297 38.2113,5.46453 16.01193,2.13282 25.18533,5.98988 36.01561,9.01176 11.58013,3.23292 18.27497,8.39213 27.77616,14.135045 7.82186,5.051435 17.0267,11.970784 23.10639,17.587973 15.55392,11.405023 23.05698,23.393763 32.58961,38.117013 1.72871,2.469589 13.04842,26.595245 14.85346,33.3125319 0.83517,3.3631292 3.39906,13.0214755 5.04245,18.6656147 2.11488,8.9533854 3.13863,16.8830154 5.49597,26.9858814 2.11038,10.40821 5.70251,30.061658 7.2606,48.43092 2.61776,15.755978 -1.57606,47.919041 -4.05013,57.792911 -5.50944,18.40967 -15.14533,40.87846 -34.17464,62.51656 -8.0823,9.58201 -16.67648,17.00874 -26.60424,25.06858 -7.59286,6.33563 -14.10809,10.02204 -25.8364,17.02671 -15.9311,9.50568 -28.05455,15.57637 -50.38414,24.30526 -9.09257,2.91861 -20.54699,6.7577 -32.89495,9.3126 -23.9191,2.20916 -48.49826,4.32852 -75.32699,1.1405 -26.83323,-3.19251 -53.71136,-10.75394 -69.58858,-15.63026 -8.76031,-3.2868 -25.73313,-10.40371 -32.85004,-14.23382 -4.62936,-2.35285 -20.15186,-12.9676 -22.78759,-15.5225 -10.63719,-6.58259 -34.44405,-28.97054 -49.81389,-49.84082 -3.36762,-6.44789 -15.47759,-25.796 -18.10434,-34.27344 -6.98221,-14.33709 -11.84954,-31.6781 -14.70978,-39.08687 -3.01739,-17.29162 -8.11373,-28.427235 -10.10286,-45.786212 0.22898,-4.08605 -0.82171,-13.699495 -1.74668,-19.020339 1.35154,-11.880975 -0.45351,-23.07944 1.90383,-36.011121 2.06996,-10.91558246 4.81346,-15.4731037 5.46453,-25.337999 0.6376,-4.220747 6.07071,-16.914448 7.51654,-22.563077 4.38239,-9.303622 5.47351,-16.96833 11.19397,-27.363059 8.24395,-16.200516 16.86058,-34.839191 30.10208,-51.120533 3.7807,-5.04695 14.50322,-17.15692 18.15821,-21.35523 8.63909,-8.63458 13.70848,-9.99958 23.50602,-18.66561 1.01927,-0.64209 7.48959,-8.01943 14.26525,-10.55638 11.2299,-8.67499 20.93315,-11.85852 31.61974,-19.74774 21.41808,-10.66863 29.22648,-14.26974 50.48741,-23.11537 12.28509,-4.38239 29.41956,-6.80709 35.58904,-9.20034 11.7373,-0.72741 23.64971,-4.4722 35.99765,-3.72684 13.86114,-0.13022 27.83005,0.85762 41.75854,2.12384 9.42485,0.57924 21.67851,1.03724 38.3011,4.64284 z"
           id="path23"
           style="fill:#ffffff;fill-opacity:1;stroke-width:0.925814"
           inkscape:connector-curvature="0" /></g></g></g></svg>
